<svg xmlns="http://www.w3.org/2000/svg" width="200" height="200" viewBox="0 0 200 200">
  <path id="路径_1" data-name="路径 1" d="M200,93.582v12.836c-.467,3.465-.821,6.95-1.42,10.392a100.093,100.093,0,0,1-80.556,81.521c-3.839.715-7.735,1.12-11.605,1.668H93.582a10.187,10.187,0,0,0-1.575-.356A85.067,85.067,0,0,1,68.6,194.929C31.963,181.6,9.488,155.891,1.621,117.613.863,113.926.53,110.152,0,106.418V93.582c.468-3.465.825-6.95,1.423-10.392A100.086,100.086,0,0,1,81.975,1.667C85.814.953,89.711.548,93.582,0h12.836c.525.122,1.046.265,1.576.363,6.956,1.288,14.175,1.781,20.828,3.985,38.078,12.612,61.371,38.68,69.556,78.043.766,3.684,1.092,7.459,1.622,11.191ZM74.679,97.473l.492.342c2.867-.17,5.74-.535,8.6-.462a6.236,6.236,0,0,1,6.434,5.784,9.541,9.541,0,0,1-.17,3.894,101.424,101.424,0,0,1-4.455,11.706c-2.817,5.826-5.888,11.52-7.151,17.952-1.415,7.2,1.9,12.038,9.081,13.267a43.857,43.857,0,0,0,15.423-.186c6-1.1,11.538-3.273,15.649-8.082a16.6,16.6,0,0,0,3.948-8.512c-2.828.723-5.4,1.482-8.015,2.026-3.976.828-7.992,1.655-12.061.674-3.44-.829-4.723-2.95-3.53-6.313a52.541,52.541,0,0,1,3.365-6.808c1.568-2.962,3.41-5.8,4.76-8.853,2.334-5.278,4.6-10.608,6.478-16.06,1.633-4.75-.314-8.121-5.1-9.576a31.156,31.156,0,0,0-6.075-1.1c-7.732-.737-15.19.02-21.638,4.876-2.152,1.623-4.029,3.612-6.032,5.434Zm46.75-34.438a12.478,12.478,0,0,0-24.956-.092c-.057,7.165,5.256,12.43,12.566,12.455a11.952,11.952,0,0,0,12.39-12.363Z" fill="#333"/>
</svg>