<?xml version="1.0" standalone="no"?><!DOCTYPE svg PUBLIC "-//W3C//DTD SVG 1.1//EN" "http://www.w3.org/Graphics/SVG/1.1/DTD/svg11.dtd"><svg t="1642041954811" class="icon" viewBox="0 0 1025 1024" version="1.1" xmlns="http://www.w3.org/2000/svg" p-id="5173" xmlns:xlink="http://www.w3.org/1999/xlink" width="200.1953125" height="200"><defs><style type="text/css"></style></defs><path d="M483.84768 867.808C466.37568 885.792 441.73568 896 415.87968 896 390.05568 896 365.41568 885.792 347.94368 867.808L27.46368 547.552C-9.17632 508.864-9.17632 450.336 27.46368 411.648 44.26368 394.944 67.30368 385.088 91.68768 384.256 118.72768 383.008 144.93568 393.024 163.46368 411.648L415.87968 664 860.61568 219.552C878.31168 201.952 902.88768 192 928.58368 192 954.24768 192 978.82368 201.952 996.51968 219.552 1033.15968 258.208 1033.15968 316.704 996.51968 355.36L483.84768 867.808Z" p-id="5174"></path></svg>