<svg xmlns="http://www.w3.org/2000/svg" width="200" height="200" viewBox="0 0 200 200">
  <g id="组_1" data-name="组 1" transform="translate(-2 6)">
    <path id="路径_1" data-name="路径 1" d="M87.1,324.08a16.339,16.339,0,0,1-24.469,0l-57.7-62.591a20.3,20.3,0,0,1,0-26.561A16.6,16.6,0,0,1,16.5,229.575a16.4,16.4,0,0,1,12.924,5.354l45.448,49.32,80.075-86.858a16.592,16.592,0,0,1,24.469,0,20.272,20.272,0,0,1,0,26.543Z" transform="translate(3.016 -161.091)"/>
    <circle id="椭圆_1" data-name="椭圆 1" cx="100" cy="100" r="100" transform="translate(2 -6)" fill="none"/>
  </g>
</svg>
